<svg width="44" height="22" viewBox="0 0 44 22" fill="none" xmlns="http://www.w3.org/2000/svg">
<path d="M14.6015 6.59394H11.5355V6.73394H14.0135V7.01394H12.9215V7.08394H11.8295V7.29394H11.1155V7.50394H10.8075V7.71394H9.33749V7.99394H11.5355V8.27394H10.4155V8.41394H11.3955V8.55394H11.9835V8.76394H12.1935V8.97394H12.3895V9.11394H12.4035V9.39394H12.6975V9.46394H12.5435V9.53394H12.1935V9.60394H11.3815L11.3395 9.74394H10.9055C10.8682 9.80927 10.8262 9.85594 10.7795 9.88394H11.2975C11.2508 9.92127 11.1855 9.93994 11.1015 9.93994H8.56749C8.48349 9.93994 8.41816 9.92127 8.37149 9.88394H7.83949C7.79283 9.85594 7.75083 9.80927 7.71349 9.74394H8.13349C8.10549 9.69727 8.09149 9.65061 8.09149 9.60394H8.90349V9.53394H9.25349V9.46394H9.40749V9.39394H9.11349V9.11394H9.09949V8.97394H8.90349V8.76394H8.69349V8.55394H8.10549V8.41394H7.12549V8.27394H8.24549V7.99394H3.28949V8.27394H5.29149V8.41394H4.99749V8.76394H5.05349V8.97394H4.78749V9.11394H4.68949V9.39394H4.73149V9.46394H5.76749V9.53394H4.89949V9.60394H5.40349C5.40349 9.65061 5.38949 9.69727 5.36149 9.74394H4.59149C4.56349 9.80927 4.51683 9.85594 4.45149 9.88394H4.36749C4.32083 9.92127 4.25083 9.93994 4.15749 9.93994H1.62349C1.53949 9.93994 1.47416 9.92127 1.42749 9.88394H1.52549C1.49749 9.86527 1.46949 9.84661 1.44149 9.82794C1.42283 9.79994 1.40416 9.77194 1.38549 9.74394H2.16949C2.14149 9.69727 2.12749 9.65061 2.12749 9.60394H1.60949V9.53394H2.47749V9.46394H1.44149V9.39394H1.39949V9.11394H1.49749V8.97394H1.76349V8.76394H1.70749V8.41394H2.00149V8.27394H-0.000507817V7.99394H3.02349V7.71394H0.265492V7.50394H0.195492V7.29394H1.34349V7.08394H1.74949V7.01394H0.853492V6.73394H2.81349V6.59394H4.18549L4.14349 6.52394H1.65149V6.45394H2.11349V6.38394H1.76349V6.10394H1.77749V5.96394H2.09949V5.75394H2.02949V5.47394H1.65149V5.40394H0.391492V5.26394H1.48349V5.19394H1.44149V5.05394H2.05749V4.91394H2.39349V4.70394H0.181492V4.42394H1.94549V4.28394H0.377492V4.07394H2.00149V3.93394H1.80549V3.79394H1.27349V3.72394H1.53949V3.51394H3.14949V3.30394H2.91149V3.16394H1.58149V3.09394H1.51149V2.88394H2.16949V2.60394H0.713492V2.46394H1.21749V2.39394H1.35749V2.25394H1.03549V2.04394H2.29549V1.83394H1.65149V1.55394H2.71549V1.48394H2.37949V1.20394H3.62549V0.993941H0.699492V0.783941H3.80749V0.573941H2.43549V0.433941H1.38549C1.39483 0.387275 1.40883 0.349941 1.42749 0.321941C1.45549 0.284607 1.48349 0.251941 1.51149 0.223941H1.58149C1.63749 0.167941 1.71683 0.139941 1.81949 0.139941H4.03149C4.16216 0.139941 4.26949 0.167941 4.35349 0.223941H4.28349C4.33949 0.251941 4.38616 0.284607 4.42349 0.321941C4.46083 0.359274 4.48883 0.396608 4.50749 0.433941H5.57149L5.62749 0.517941L5.65549 0.573941H7.04149L7.16749 0.783941H4.05949L4.18549 0.993941H7.09749L7.22349 1.20394H5.99149L6.15949 1.48394H6.49549L6.53749 1.55394H5.47349L5.64149 1.83394H6.27149L6.39749 2.04394H5.15149L5.27749 2.25394H5.59949L5.68349 2.39394H5.54349L5.58549 2.46394H5.08149L5.16549 2.60394H6.62149L6.78949 2.88394H6.13149L6.25749 3.09394H6.32749L6.36949 3.16394H7.40549L7.44749 3.09394H7.06949L7.19549 2.88394H7.65749L7.82549 2.60394H7.57349L7.65749 2.46394H6.52349L6.56549 2.39394H7.97949L8.06349 2.25394H7.95149L8.07749 2.04394H8.91749L9.04349 1.83394H9.08549L9.25349 1.55394H8.60949L8.65149 1.48394H10.1215L10.2895 1.20394H10.2055L10.3315 0.993941H8.17549L8.30149 0.783941H10.3735L10.4995 0.573941H8.97349L9.00149 0.517941C9.02016 0.480607 9.03883 0.452608 9.05749 0.433941H9.08549C9.11349 0.396608 9.14616 0.359274 9.18349 0.321941C9.22083 0.284607 9.26283 0.251941 9.30949 0.223941H9.28149C9.36549 0.167941 9.47283 0.139941 9.60349 0.139941H11.8155C11.9088 0.139941 11.9882 0.167941 12.0535 0.223941H12.0955C12.1235 0.251941 12.1468 0.284607 12.1655 0.321941C12.1935 0.349941 12.2122 0.387275 12.2215 0.433941H12.1935V0.573941H13.7335V0.783941H11.6615V0.993941H13.8175V1.20394H13.9015V1.48394H12.4315V1.55394H13.0755V1.83394H13.0335V2.04394H12.1935V2.25394H12.3055V2.39394H10.8915V2.46394H12.0255V2.60394H12.2775V2.88394H11.8295V3.09394H12.1935V3.16394H12.8515V3.30394H11.4095V3.51394H12.4455V3.72394H12.1935V3.79394H12.2495V3.93394H12.4455V4.07394H10.8215V4.28394H12.3895V4.42394H10.6255V4.70394H12.8375V4.91394H12.5015V5.05394H11.8855V5.19394H11.9275V5.26394H10.8355V5.40394H12.0955V5.47394H12.4735V5.75394H12.1515V5.96394H11.9135V6.10394H12.1935V6.38394H12.3195V6.45394H12.9215V6.52394H14.6015V6.59394ZM8.04949 3.16394H7.69949L7.78349 3.30394H7.96549L8.04949 3.16394ZM6.39749 3.72394L6.43949 3.79394H6.98549L7.02749 3.87794L7.08349 3.79394H7.02749L7.06949 3.72394H7.30749L7.43349 3.51394H6.55149L6.67749 3.72394H6.39749ZM8.46949 5.96394H8.86149V5.75394H8.59549L8.46949 5.96394ZM5.05349 6.38394H5.40349V6.45394H4.94149V6.52394H5.89349L5.85149 6.45394H5.62749L5.57149 6.38394H5.44549L5.27749 6.10394H5.30549L5.22149 5.96394H5.06749V6.10394H5.05349V6.38394ZM11.3115 6.59394V6.52394H9.63149V6.45394H9.02949V6.38394H8.90349V6.10394H8.67949L8.49749 6.38394H8.63749L8.59549 6.45394H8.81949L8.77749 6.52394H7.62949V6.59394H6.10349V6.73394H4.14349V7.01394H5.03949V7.08394H4.63349V7.29394H3.48549V7.50394H3.55549V7.71394H7.51749V7.50394H7.82549V7.29394H6.64949C6.62149 7.33127 6.59349 7.36861 6.56549 7.40594C6.53749 7.44327 6.50016 7.47594 6.45349 7.50394H6.41149C6.32749 7.55994 6.23416 7.58794 6.13149 7.58794H5.15149C5.03949 7.58794 4.94149 7.55994 4.85749 7.50394H4.89949C4.86216 7.47594 4.82483 7.44327 4.78749 7.40594C4.75949 7.36861 4.73149 7.33127 4.70349 7.29394H6.14549L6.10349 7.23794L6.00549 7.08394H5.50149L5.45949 7.01394H6.43949L6.25749 6.73394H7.89549L7.81149 6.59394H11.3115ZM10.7235 7.01394V6.73394H8.88949L8.72149 7.01394H7.75549L7.71349 7.08394H8.21749L8.11949 7.23794L8.07749 7.29394H8.53949V7.08394H9.63149V7.01394H10.7235ZM22.5877 7.50394H23.6937V7.71394H21.5657V7.99394H22.9377V8.27394H21.7337V8.55394H21.8877V8.76394H21.7897V8.90394H21.4957V9.04394H21.4817V9.18394H21.7757V9.46394H22.1817V9.56194C22.1817 9.58061 22.1771 9.59461 22.1677 9.60394H19.6757C19.6664 9.62261 19.6617 9.64594 19.6617 9.67394H20.6277C20.5997 9.76727 20.5484 9.83727 20.4737 9.88394H20.2077C20.1611 9.92127 20.0957 9.93994 20.0117 9.93994H12.7177C12.6431 9.93994 12.5731 9.92127 12.5077 9.88394H12.7737C12.7084 9.83727 12.6571 9.76727 12.6197 9.67394H11.6397C11.6304 9.65527 11.6257 9.63194 11.6257 9.60394H14.1317V9.46394H13.7257V9.18394H13.4317V9.04394H13.4457V8.90394H13.7397V8.76394H13.8377V8.55394H13.6837V8.27394H14.8877V7.99394H13.5157V7.71394H15.6437V7.50394H14.5377V7.36394H14.8597V7.22394H14.9997V7.08394H13.4457V6.94394H13.0817V6.73394H14.3837V6.66394H13.3477V6.52394H13.6557V6.38394H13.8797V6.17394H13.8517V5.89394H13.7117V5.61394H13.5017V5.47394H13.6697V5.19394H13.5157V5.05394H13.7397V4.84394H13.7957V4.63394H14.0477V4.56394H13.8097V4.28394H13.5997V4.07394H13.6557V3.86394H13.6837V3.58394H13.8937V3.30394H13.5857V3.02394H13.6277V2.74394H14.0197V2.53394H13.8097V2.32394H13.6977V2.25394H14.2857V2.04394H15.3217V1.90394H14.9017V1.76394H13.5437V1.69394H13.6977V1.48394H13.7117V1.27394H13.7537V0.993941H13.7397V0.643941H13.7117V0.517941C13.7117 0.480607 13.7164 0.452608 13.7257 0.433941H13.5857C13.6231 0.237941 13.7444 0.139941 13.9497 0.139941H21.1317C21.3464 0.139941 21.4677 0.237941 21.4957 0.433941H21.6357C21.6451 0.452608 21.6497 0.480607 21.6497 0.517941V0.643941H21.6777V0.993941H21.6917V1.27394H21.6497V1.48394H21.6357V1.69394H21.4817V1.76394H22.8397V1.90394H23.2597V2.04394H22.2237V2.25394H21.6357V2.32394H21.7477V2.53394H21.9577C21.9391 2.62727 21.9064 2.69727 21.8597 2.74394H21.4677C21.4024 2.82794 21.3091 2.86994 21.1877 2.86994H16.9877V3.02394H16.9457V3.30394H17.2537V3.58394H17.0437V3.75194H20.9357C21.0384 3.75194 21.1271 3.78927 21.2017 3.86394H21.1737C21.2204 3.91061 21.2531 3.98061 21.2717 4.07394H21.2297V4.28394H21.4397V4.56394H21.6777V4.63394H21.4257V4.84394H21.3697V5.05394H21.1457V5.19394H21.2997V5.47394H21.1317V5.61394H21.3417V5.89394H21.4817V5.94994C21.4817 6.05261 21.4584 6.12727 21.4117 6.17394H21.4397C21.3651 6.27661 21.2624 6.32794 21.1317 6.32794H17.2397V6.38394H17.0157V6.52394H16.7077V6.66394H17.7437V6.73394H16.4417V6.94394H16.8057V7.08394H18.3597V7.20994H22.6717C22.7184 7.20994 22.7557 7.21461 22.7837 7.22394H22.6297C22.7231 7.25194 22.7931 7.29861 22.8397 7.36394H22.5177C22.5551 7.41994 22.5784 7.46661 22.5877 7.50394ZM31.7156 8.55394H31.1416L31.0156 8.69394H33.1576C33.1483 8.70327 33.139 8.71261 33.1296 8.72194C33.1203 8.73127 33.1063 8.74527 33.0876 8.76394H29.7836C29.737 8.81061 29.6856 8.85727 29.6296 8.90394C29.583 8.95061 29.5316 8.99727 29.4756 9.04394H30.4976L30.3156 9.18394H32.2196L32.1076 9.25394H31.2816C31.2723 9.26327 31.2536 9.27261 31.2256 9.28194C31.207 9.29127 31.1883 9.30527 31.1696 9.32394H30.2316L29.8396 9.53394H30.3856C30.2643 9.58994 30.143 9.64127 30.0216 9.68794C29.9003 9.72527 29.7743 9.76727 29.6436 9.81394H29.1396C28.8223 9.90727 28.477 9.97727 28.1036 10.0239H28.1736C28.0243 10.0426 27.8703 10.0566 27.7116 10.0659C27.553 10.0753 27.3943 10.0799 27.2356 10.0799C27.0583 10.0799 26.881 10.0753 26.7036 10.0659C26.5356 10.0566 26.3723 10.0426 26.2136 10.0239H26.1576C25.7563 9.97727 25.397 9.90727 25.0796 9.81394H25.5836C25.4436 9.76727 25.313 9.72527 25.1916 9.68794C25.0703 9.64127 24.949 9.58994 24.8276 9.53394H24.2816C24.2163 9.49661 24.151 9.46394 24.0856 9.43594C24.0203 9.39861 23.955 9.36127 23.8896 9.32394H24.8416L24.7296 9.25394H25.5556C25.5463 9.23527 25.5323 9.22127 25.5136 9.21194C25.495 9.20261 25.4763 9.19327 25.4576 9.18394H23.5536C23.5163 9.16527 23.4836 9.14194 23.4556 9.11394C23.4276 9.08594 23.3996 9.06261 23.3716 9.04394H22.3356C22.289 8.99727 22.2423 8.95061 22.1956 8.90394C22.1396 8.85727 22.0883 8.81061 22.0416 8.76394H25.3456C25.3363 8.74527 25.327 8.73127 25.3176 8.72194C25.3083 8.71261 25.299 8.70327 25.2896 8.69394H23.1476C23.1103 8.65661 23.073 8.60994 23.0356 8.55394H23.6096C23.6003 8.53527 23.591 8.52127 23.5816 8.51194C23.5723 8.50261 23.563 8.49327 23.5536 8.48394H25.3036L25.1776 8.27394H24.3096L24.2676 8.20394H22.2936C22.2843 8.16661 22.2703 8.13394 22.2516 8.10594C22.233 8.06861 22.2143 8.03127 22.1956 7.99394H23.1336L23.0496 7.78394H22.7136L22.6856 7.71394H22.8396C22.8303 7.67661 22.821 7.64394 22.8116 7.61594C22.8023 7.57861 22.793 7.54127 22.7836 7.50394H22.6716C22.6716 7.46661 22.667 7.43394 22.6576 7.40594C22.6576 7.36861 22.653 7.33127 22.6436 7.29394H22.5316C22.5316 7.25661 22.527 7.22394 22.5176 7.19594C22.5176 7.16794 22.5176 7.13527 22.5176 7.09794V7.08394H22.5036C22.5036 7.06527 22.5036 7.05127 22.5036 7.04194C22.513 7.03261 22.5176 7.02327 22.5176 7.01394H22.8396C22.8863 6.86461 22.9843 6.78994 23.1336 6.78994H25.7936C25.943 6.78994 26.055 6.80861 26.1296 6.84594C26.2043 6.88327 26.2883 6.93927 26.3816 7.01394H26.0596L26.0736 7.02794C26.0923 7.03727 26.1063 7.04661 26.1156 7.05594C26.1343 7.06527 26.1483 7.07461 26.1576 7.08394H26.1716C26.293 7.17727 26.4423 7.24727 26.6196 7.29394H26.7456C26.867 7.33127 27.0303 7.34994 27.2356 7.34994C27.357 7.34994 27.469 7.34527 27.5716 7.33594C27.6743 7.32661 27.763 7.31261 27.8376 7.29394H27.7956C28.0103 7.24727 28.1456 7.17727 28.2016 7.08394H28.1736C28.1923 7.04661 28.2016 7.02327 28.2016 7.01394H28.3416L28.3556 6.95794C28.3556 6.87394 28.323 6.79927 28.2576 6.73394H28.1456C28.0616 6.64994 27.9123 6.57994 27.6976 6.52394H27.6556C27.5716 6.49594 27.4736 6.47261 27.3616 6.45394C27.2496 6.42594 27.119 6.40261 26.9696 6.38394H26.8856L26.3116 6.29994C26.2463 6.29061 26.181 6.28127 26.1156 6.27194C26.0596 6.26261 25.999 6.25327 25.9336 6.24394C25.551 6.17861 25.1823 6.08527 24.8276 5.96394H24.5756C24.445 5.91727 24.3236 5.87061 24.2116 5.82394H24.0156C23.969 5.80527 23.9223 5.78661 23.8756 5.76794C23.829 5.73994 23.7823 5.71194 23.7356 5.68394H22.5176C22.4523 5.64661 22.3916 5.61394 22.3356 5.58594C22.2796 5.54861 22.2236 5.51127 22.1676 5.47394H24.7716C24.725 5.43661 24.6783 5.40394 24.6316 5.37594C24.5943 5.33861 24.5523 5.30127 24.5056 5.26394H21.7196C21.6916 5.24527 21.6683 5.22194 21.6496 5.19394C21.6216 5.16594 21.5983 5.14261 21.5796 5.12394H22.3076C22.2236 5.03061 22.1443 4.93727 22.0696 4.84394H22.2796L22.1956 4.70394H20.8516C20.8423 4.68527 20.833 4.67127 20.8236 4.66194C20.8143 4.65261 20.8096 4.64327 20.8096 4.63394H24.0016C23.983 4.59661 23.9643 4.56394 23.9456 4.53594C23.927 4.49861 23.9083 4.46127 23.8896 4.42394H21.4396L21.3556 4.21394H23.3296L23.3016 4.14394H22.7136L22.6856 4.07394H22.9656C22.9656 4.05527 22.961 4.04127 22.9516 4.03194C22.9516 4.02261 22.9516 4.01327 22.9516 4.00394H22.8956L22.8536 3.86394H22.7696L22.7556 3.72394H22.7276V3.65394H22.2796C22.2703 3.63527 22.2656 3.61194 22.2656 3.58394C22.2656 3.55594 22.2656 3.53261 22.2656 3.51394H21.8596L21.8456 3.37394H23.4416C23.4323 3.35527 23.4276 3.33194 23.4276 3.30394C23.4276 3.27594 23.4276 3.25261 23.4276 3.23394H23.6516V3.21994C23.6516 3.17327 23.6516 3.12661 23.6516 3.07994C23.6516 3.03327 23.6563 2.99127 23.6656 2.95394H23.0636C23.073 2.91661 23.0776 2.88394 23.0776 2.85594C23.0776 2.81861 23.0823 2.78127 23.0916 2.74394H24.0716C24.0716 2.72527 24.0716 2.71127 24.0716 2.70194C24.081 2.69261 24.0856 2.68327 24.0856 2.67394H23.0916C23.1103 2.61794 23.1196 2.57127 23.1196 2.53394H22.9656L23.0076 2.39394H22.7696C22.7976 2.29127 22.8303 2.19794 22.8676 2.11394H22.9796L23.0356 1.97394H23.1896L23.3156 1.76394H23.1756C23.2036 1.72661 23.227 1.69394 23.2456 1.66594C23.2736 1.62861 23.297 1.59127 23.3156 1.55394H23.2036L23.3716 1.34394H23.6656C23.675 1.32527 23.6843 1.31127 23.6936 1.30194C23.703 1.29261 23.7123 1.28327 23.7216 1.27394H23.3296C23.367 1.23661 23.4043 1.20394 23.4416 1.17594C23.479 1.13861 23.5163 1.10127 23.5536 1.06394H23.7776C23.8336 1.01727 23.8896 0.970607 23.9456 0.923941C24.0016 0.867941 24.0623 0.821274 24.1276 0.783941H24.3796C24.4356 0.746607 24.4916 0.713941 24.5476 0.685941C24.6036 0.648608 24.6643 0.611274 24.7296 0.573941H24.6876C24.7063 0.555275 24.7296 0.541274 24.7576 0.531941C24.7856 0.522607 24.809 0.513274 24.8276 0.503941H24.6316C24.6503 0.485274 24.6736 0.471274 24.7016 0.461941C24.7296 0.452608 24.7576 0.443274 24.7856 0.433941H24.6456C24.7763 0.377941 24.9116 0.326607 25.0516 0.279941C25.201 0.233274 25.3503 0.191274 25.4996 0.153941H25.7096C25.9243 0.107274 26.1483 0.0699408 26.3816 0.0419412C26.6243 0.013941 26.8763 -5.91278e-05 27.1376 -5.91278e-05C27.6323 -5.91278e-05 28.099 0.0512741 28.5376 0.153941H28.3416C28.6403 0.219274 28.9296 0.312608 29.2096 0.433941H29.3356C29.3636 0.443274 29.3916 0.452608 29.4196 0.461941C29.4476 0.471274 29.4756 0.485274 29.5036 0.503941H29.6996C29.7183 0.513274 29.7416 0.522607 29.7696 0.531941C29.7976 0.541274 29.821 0.555275 29.8396 0.573941H29.8816C29.947 0.611274 30.0076 0.648608 30.0636 0.685941C30.129 0.713941 30.1896 0.746607 30.2456 0.783941H30.0076C30.0823 0.821274 30.1476 0.867941 30.2036 0.923941C30.269 0.970607 30.3296 1.01727 30.3856 1.06394H30.1756L30.3996 1.27394H30.7916L30.8616 1.34394H30.5676C30.605 1.38127 30.6376 1.41861 30.6656 1.45594C30.703 1.48394 30.7356 1.51661 30.7636 1.55394H30.8756L31.0436 1.76394H31.1696L31.2956 1.97394H31.1416C31.1696 2.02061 31.193 2.06727 31.2116 2.11394H31.0996C31.1276 2.16061 31.151 2.20727 31.1696 2.25394C31.1883 2.30061 31.207 2.34727 31.2256 2.39394H31.4636C31.4823 2.44994 31.4916 2.49661 31.4916 2.53394H31.6596C31.669 2.55261 31.6736 2.57594 31.6736 2.60394C31.6736 2.63194 31.6783 2.65527 31.6876 2.67394H32.6816V2.74394H31.7856C31.795 2.78127 31.7996 2.83261 31.7996 2.89794V2.95394H31.2816C31.2443 3.12194 31.151 3.20594 31.0016 3.20594H28.2016C28.071 3.20594 27.9636 3.18727 27.8796 3.14994C27.805 3.11261 27.7256 3.05661 27.6416 2.98194L27.5996 2.95394H28.1176C28.071 2.91661 28.0056 2.87927 27.9216 2.84194C27.8376 2.79527 27.7303 2.76261 27.5996 2.74394H27.0956C26.8996 2.77194 26.7643 2.84194 26.6896 2.95394H27.2916C27.2636 3.00994 27.2496 3.06594 27.2496 3.12194C27.2496 3.16861 27.2543 3.20594 27.2636 3.23394H27.0536C27.063 3.28061 27.1003 3.32727 27.1656 3.37394H25.5836C25.6396 3.42061 25.7376 3.46727 25.8776 3.51394H26.2836C26.3583 3.54194 26.447 3.56994 26.5496 3.59794C26.6616 3.61661 26.7783 3.63527 26.8996 3.65394H27.3476C27.4223 3.66327 27.5016 3.67261 27.5856 3.68194C27.6696 3.69127 27.7583 3.70527 27.8516 3.72394H27.8656C28.0243 3.74261 28.1783 3.76594 28.3276 3.79394C28.477 3.81261 28.617 3.83594 28.7476 3.86394H28.8316C28.9436 3.88261 29.0463 3.90594 29.1396 3.93394C29.2423 3.95261 29.3403 3.97594 29.4336 4.00394H29.4896C29.5363 4.01327 29.5783 4.02261 29.6156 4.03194C29.653 4.04127 29.6903 4.05527 29.7276 4.07394H29.4616C29.499 4.08327 29.5316 4.09261 29.5596 4.10194C29.597 4.11127 29.6343 4.12527 29.6716 4.14394H30.2596C30.2876 4.15327 30.3156 4.16261 30.3436 4.17194C30.381 4.18127 30.4136 4.19527 30.4416 4.21394H28.4676C28.6543 4.28861 28.8036 4.35861 28.9156 4.42394H31.3656C31.4216 4.46127 31.4776 4.49861 31.5336 4.53594C31.5896 4.56394 31.641 4.59661 31.6876 4.63394H28.4956C28.5143 4.64327 28.533 4.65261 28.5516 4.66194C28.5703 4.67127 28.5843 4.68527 28.5936 4.70394H29.9376C29.9656 4.72261 29.9936 4.74594 30.0216 4.77394C30.0496 4.80194 30.073 4.82527 30.0916 4.84394H29.8816C29.975 4.92794 30.0543 5.02127 30.1196 5.12394H29.3916C29.4103 5.14261 29.429 5.16594 29.4476 5.19394C29.4663 5.22194 29.4803 5.24527 29.4896 5.26394H32.2616L32.3876 5.47394H29.7836C29.8023 5.51127 29.821 5.54861 29.8396 5.58594C29.8583 5.61394 29.8723 5.64661 29.8816 5.68394H31.0856L31.1276 5.82394H31.3236L31.3656 5.96394H31.6176C31.6363 6.00127 31.6456 6.04794 31.6456 6.10394C31.655 6.15061 31.6643 6.19727 31.6736 6.24394L31.6876 6.38394H31.7716C31.781 6.40261 31.7856 6.42594 31.7856 6.45394C31.7856 6.48194 31.7856 6.50527 31.7856 6.52394H31.8276V6.73394H31.9536V6.77594C31.9536 6.81327 31.949 6.85061 31.9396 6.88794C31.9396 6.92527 31.9396 6.96727 31.9396 7.01394H31.7996V7.08394H31.8276C31.8276 7.12127 31.823 7.15861 31.8136 7.19594C31.8136 7.22394 31.809 7.25661 31.7996 7.29394H31.8416L31.7996 7.50394H31.9116C31.9023 7.54127 31.893 7.57861 31.8836 7.61594C31.8743 7.64394 31.8603 7.67661 31.8416 7.71394H31.6876C31.6876 7.72327 31.683 7.73261 31.6736 7.74194C31.6736 7.75127 31.6736 7.76527 31.6736 7.78394H32.0096L31.9256 7.99394H30.9876C30.9783 8.03127 30.9596 8.06861 30.9316 8.10594C30.913 8.13394 30.8943 8.16661 30.8756 8.20394H32.8496L32.8076 8.27394H33.6616C33.643 8.31127 33.6196 8.34861 33.5916 8.38594C33.573 8.41394 33.5496 8.44661 33.5216 8.48394H31.7716C31.7623 8.49327 31.753 8.50261 31.7436 8.51194C31.7343 8.52127 31.725 8.53527 31.7156 8.55394ZM28.0756 2.74394H28.4956C28.4676 2.73461 28.435 2.72994 28.3976 2.72994C28.3696 2.72994 28.337 2.72994 28.2996 2.72994C28.2623 2.72994 28.225 2.72994 28.1876 2.72994C28.1503 2.72994 28.113 2.73461 28.0756 2.74394ZM42.7233 6.66394V6.73394H43.8153V6.87394H43.7593V7.08394H40.8613V7.15394H41.3653V7.36394H42.9053V7.50394H42.1073V7.78394H42.0653V7.85394H41.1413V8.06394H42.5133V8.13394H42.5693V8.34394H42.7093V8.62394H40.0073V8.83394H42.8633V8.97394H41.9113V9.18394H41.7853V9.32394H42.1073V9.46394H41.8973V9.60394H42.3873L42.3453 9.74394H43.0033C42.9847 9.77194 42.9613 9.79994 42.9333 9.82794C42.9147 9.84661 42.8913 9.86527 42.8633 9.88394H43.1853C43.1387 9.92127 43.0733 9.93994 42.9893 9.93994H40.2453C40.1613 9.93994 40.096 9.92127 40.0493 9.88394H39.7273C39.662 9.85594 39.6153 9.80927 39.5873 9.74394H38.9293L38.8873 9.60394H38.3973V9.46394H38.6073V9.32394H38.2853V9.18394H38.4113V8.97394H39.3633V8.83394H36.8293V8.97394H35.6673V9.18394H36.4653V9.32394H36.2693V9.46394H36.9973V9.60394H36.2133L36.1713 9.74394H36.4793C36.442 9.80927 36.4 9.85594 36.3533 9.88394H36.0173C35.9707 9.92127 35.9053 9.93994 35.8213 9.93994H33.0773C32.984 9.93994 32.914 9.92127 32.8673 9.88394H33.2033C33.1567 9.85594 33.1147 9.80927 33.0773 9.74394H32.7553C32.7273 9.69727 32.7133 9.65061 32.7133 9.60394H33.4973V9.46394H32.7693V9.32394H32.9653V9.18394H32.1673V8.97394H33.3293V8.83394H34.0013V8.62394H31.8453V8.34394H32.6433V8.13394H33.2033V8.06394H32.8113V7.85394H32.1533V7.78394H32.2933V7.50394H32.7413V7.36394H32.9513V7.15394H31.9433V7.08394H34.5333V6.87394H31.3693V6.73394H34.3513V6.66394H32.8953V6.45394H33.7353V6.38394H33.9033V6.31394H33.8333V6.03394H32.4473V5.82394H32.9093V5.75394H32.7833V5.54394H32.8393V5.47394H32.8533V5.33394H32.8673V5.26394H32.6853V5.19394H32.1393V4.98394H32.3213V4.77394H32.0413V4.56394H32.7413V4.28394H32.5873V4.14394H31.5653V4.07394H33.2033V3.93394H33.5953V3.86394H29.8153V3.79394H32.0413V3.72394H32.8393V3.51394H31.4113V3.23394H31.0193V3.02394H32.6993V2.74394H32.8393V2.53394H33.7353V2.46394H32.9653V2.18394H33.5953V2.04394H32.8393V1.97394H32.5733V1.83394H32.1673V1.69394H31.6773V1.41394H32.5593V1.20394H33.0913V0.993941H32.8393V0.853941H32.4893V0.783941H32.6853V0.643941H32.6433V0.517941C32.6433 0.452608 32.6573 0.401275 32.6853 0.363941H33.5813C33.5907 0.335941 33.6047 0.312608 33.6233 0.293941C33.642 0.265941 33.6607 0.242608 33.6793 0.223941H35.8353C35.8913 0.167941 35.9707 0.139941 36.0733 0.139941H41.4493C41.5427 0.139941 41.622 0.167941 41.6873 0.223941H43.8433C43.862 0.242608 43.8807 0.265941 43.8993 0.293941C43.9273 0.312608 43.946 0.335941 43.9553 0.363941H42.1493C42.168 0.419941 42.1773 0.471274 42.1773 0.517941V0.643941H42.2473V0.783941H42.4433V0.853941H42.0653V0.993941H41.8973V1.20394H42.4433V1.41394H41.1273V1.69394H42.6393V1.83394H41.5473V1.97394H41.9953V2.04394H41.7713V2.18394H42.8213V2.46394H41.2813V2.53394H42.4713V2.74394H42.2613V3.02394H41.1413V3.23394H40.6793V3.51394H42.1073V3.72394H41.3093V3.79394H39.0833V3.86394H42.8633V3.93394H42.4713V4.07394H40.8333V4.14394H41.8553V4.28394H42.0093V4.56394H41.3093V4.77394H41.5893V4.98394H41.4073V5.19394H41.9533V5.26394H42.1353V5.33394H42.1213V5.47394H42.1073V5.54394H42.0513V5.75394H42.1773V5.82394H41.7153V6.03394H43.1013V6.31394H43.1713V6.38394H43.0033V6.45394H42.1633V6.66394H42.7233ZM34.5193 3.02394V3.23394H34.9113V3.45794H37.1793V3.23394H37.6413V3.02394H38.7613V2.74394H38.9713V2.53394H37.7813V2.46394H39.3213V2.18394H38.2713V2.04394H38.4953V1.97394H38.0473V1.83394H39.1393V1.69394H37.6273V1.41394H38.9433V1.20394H38.3973V0.993941H38.5653V0.853941H38.9433V0.783941H38.7473V0.643941H38.6773V0.517941C38.6773 0.471274 38.6867 0.419941 38.7053 0.363941H40.5113C40.53 0.335941 40.5487 0.312608 40.5673 0.293941C40.586 0.265941 40.6047 0.242608 40.6233 0.223941H36.8993C36.946 0.261274 36.9833 0.307941 37.0113 0.363941H36.1153C36.134 0.391941 36.1433 0.443274 36.1433 0.517941V0.643941H36.1853V0.783941H35.9893V0.853941H36.3393V0.993941H36.5913V1.20394H36.0593V1.41394H35.1773V1.69394H35.6673V1.83394H36.0733V1.97394H36.3393V2.04394H37.0953V2.18394H36.4653V2.46394H37.2353V2.53394H36.3393V2.74394H36.1993V3.02394H34.5193ZM40.3153 6.87394V6.73394H39.2233V6.66394H38.6633V6.53794H36.3953V6.66394H37.8513V6.73394H34.8693V6.87394H38.0333V7.08394H40.2593V6.87394H40.3153ZM39.4053 7.36394H37.8653V7.15394H37.3613V7.08394H35.4433V7.15394H36.4513V7.36394H36.2413V7.50394H35.7933V7.78394H35.6533V7.85394H36.3113V8.06394H36.7033V8.13394H36.1433V8.34394H35.3453V8.62394H39.2093V8.34394H39.0693V8.13394H39.0133V8.06394H37.6413V7.85394H38.5653V7.78394H38.6073V7.50394H39.4053V7.36394ZM9.79769 13.6039V13.6459C9.79769 13.7299 9.76969 13.8093 9.71369 13.8839H11.6457C11.5804 13.9773 11.4824 14.0239 11.3517 14.0239H7.34769V14.0939H6.28369V14.3039H5.80769V14.5839H6.28369V14.7939H6.15769V15.0039H6.10169V15.0599H9.82569C9.91902 15.0599 9.99835 15.0879 10.0637 15.1439H10.0917C10.1384 15.1813 10.1757 15.2279 10.2037 15.2839H10.1197C10.1477 15.3213 10.1617 15.3726 10.1617 15.4379V15.5639H10.1057V15.6339H10.4697V15.9139H10.1477V16.0539H10.2317V16.2639H10.2737V16.3339H10.3997V16.5439H10.1897V16.6139H9.47569V16.8939H9.30769V17.1039H10.3717V17.3839H9.97969V17.5519C9.97969 17.5986 9.97502 17.6359 9.96569 17.6639H9.93769C9.90035 17.7666 9.84435 17.8366 9.76969 17.8739H9.48969C9.44302 17.9113 9.37769 17.9299 9.29369 17.9299H5.56969V18.0839H5.98969V18.2239H6.61969V18.4339H5.30369V18.5739H6.50769V18.7839H5.59769V18.8539H6.29769V19.1339H5.90569V19.4139H6.08769V19.4839H6.00369V19.7639H6.22769V19.8339H6.12969V19.9039H5.93369V20.0439H6.12969V20.1839H5.93369V20.3939H6.59169V20.4639H7.02569V20.5619C7.02569 20.5713 7.02102 20.5806 7.01169 20.5899C7.01169 20.5899 7.01169 20.5946 7.01169 20.6039H8.18769C8.18769 20.6319 8.18302 20.6553 8.17369 20.6739H6.21369C6.19502 20.7579 6.14369 20.8279 6.05969 20.8839H7.06769C7.02102 20.9213 6.95569 20.9399 6.87169 20.9399H4.19769C4.11369 20.9399 4.04835 20.9213 4.00169 20.8839H2.97969C2.91435 20.8373 2.86302 20.7673 2.82569 20.6739H4.77169C4.77169 20.6459 4.76702 20.6226 4.75769 20.6039H3.59569V20.4639H3.16169V20.3939H2.50369V20.1839H2.69969V20.0439H2.50369V19.9039H2.69969V19.8339H2.79769V19.7639H2.57369V19.4839H2.65769V19.4139H2.47569V19.1339H2.86769V18.8539H2.16769V18.7839H3.07769V18.5739H1.87369V18.4339H3.18969V18.2239H2.55969V18.0839H2.13969V17.8739H2.41969V17.6639H2.44769V17.3839H2.83969V17.1039H1.77569V16.8939H1.94369V16.6139H2.65769V16.5439H2.86769V16.3339H2.74169V16.2639H2.69969V16.0539H2.61569V15.9139H2.93769V15.6339H2.57369V15.5639H2.62969V15.2839H2.69969V15.1439H2.67169V15.0039H2.72769V14.7939H2.85369V14.5839H2.37769V14.3039H2.85369V14.0939H3.91769V13.8839H1.98569V13.6039H4.11369V13.3939H2.05569V13.2539H2.11169V13.1139H3.30169V12.8339H2.78369V12.5539H3.02169V12.2739H2.65769V11.9939H2.69969V11.7839H2.57369V11.5739H2.64369V11.5179C2.64369 11.4806 2.64835 11.4526 2.65769 11.4339H2.09769C2.10702 11.3873 2.12102 11.3499 2.13969 11.3219C2.16769 11.2846 2.19569 11.2519 2.22369 11.2239H2.11169C2.18635 11.1679 2.26569 11.1399 2.34969 11.1399H9.40569C9.49902 11.1399 9.57835 11.1679 9.64369 11.2239H9.75569C9.82102 11.2706 9.86769 11.3406 9.89569 11.4339H10.4417C10.451 11.4526 10.4557 11.4806 10.4557 11.5179V11.5739H10.3857V11.7839H10.5117V11.9939H10.4697V12.2739H10.8337V12.5539H10.5957V12.8339H11.1137V13.1139H9.92369V13.2539H9.86769V13.3939H11.9257V13.6039H9.79769ZM11.4705 11.5039C11.4798 11.4759 11.4845 11.4526 11.4845 11.4339C11.4938 11.4059 11.5031 11.3826 11.5125 11.3639H9.97247C9.99114 11.3359 10.0098 11.3126 10.0285 11.2939C10.0471 11.2659 10.0658 11.2426 10.0845 11.2239H11.7085C11.7831 11.1679 11.8625 11.1399 11.9465 11.1399H14.7465C14.8491 11.1399 14.9285 11.1679 14.9845 11.2239H13.3605C13.3791 11.2426 13.3978 11.2659 13.4165 11.2939C13.4445 11.3126 13.4631 11.3359 13.4725 11.3639H14.9985C15.0171 11.4199 15.0265 11.4666 15.0265 11.5039H15.8105C15.8198 11.5039 15.8245 11.5086 15.8245 11.5179V11.6439H13.9345V11.9239H14.7185V12.1339H14.6345V12.4139H14.1305V12.6939H15.2645V12.7639H15.3485V13.0439H15.4045V13.3239H15.3065V13.6039H15.2365V13.9539H15.4745V14.2339H15.2085V14.5139H15.2645V14.5839H16.2585V14.8639H16.7765V15.0039H14.6205V15.1439H15.3345V15.4239H14.7465V15.7039H15.2505V15.8439H15.3485V16.0539H17.2245V16.1939H18.5265V16.4739H14.9705V16.1939H13.6685V16.0539H11.7925V15.8439H11.6945V15.7039H11.1905V15.4239H11.7785V15.1439H11.0645V15.0039H13.2205V14.8639H12.7025V14.5839H11.7085V14.5139H11.6525V14.2339H11.9185V13.9539H11.6805V13.6039H11.7505V13.3239H11.8485V13.0439H11.7925V12.7639H11.7085V12.6939H10.5745V12.4139H11.0785V12.1339H11.1625V11.9239H10.3785V11.6439H12.2685V11.5039H11.4705ZM20.7805 19.0639H16.9585V19.1339H17.2385V19.3439H19.2265V19.4139H18.6105V19.6939H19.5905V19.9039H19.7305V19.9739H19.6325V20.0439H19.5905V20.3239H19.6185V20.5339H19.5625V20.6039H19.4925C19.4831 20.6226 19.4785 20.6459 19.4785 20.6739H19.6325C19.6045 20.7673 19.5531 20.8373 19.4785 20.8839H19.3245C19.2778 20.9213 19.2125 20.9399 19.1285 20.9399H12.0725C11.9885 20.9399 11.9231 20.9213 11.8765 20.8839H12.0165C11.9325 20.8373 11.8765 20.7673 11.8485 20.6739H11.6945C11.6945 20.6553 11.6898 20.6413 11.6805 20.6319C11.6805 20.6226 11.6805 20.6133 11.6805 20.6039H11.7505V20.5339H11.8065V20.3239H11.7785V20.0439H11.8205V19.9739H11.9185V19.9039H11.7785V19.6939H10.7985V19.4139H11.4145V19.3439H9.42647V19.1339H9.14647V19.0639H12.9685V18.8539H11.4145V18.6439H12.9265V18.5739H9.62247V18.3639H10.0985V18.2939H11.9185V18.2239H11.2745V18.0139H12.3665V17.7339H11.2605V17.5939H12.1705V17.5239H11.7505V17.3139H12.1565V17.1739H11.6385V17.0339H12.8565V16.8239H13.2065V16.6839H11.2885V16.4739H14.8445V16.6839H16.7625V16.8239H16.4125V17.0339H15.1945V17.1739H15.7125V17.3139H15.3065V17.5239H15.7265V17.5939H14.8165V17.7339H15.9225V18.0139H14.8305V18.0699H18.7085C18.8391 18.0699 18.9418 18.1213 19.0165 18.2239H19.6605L19.7025 18.2939H17.8825L17.9105 18.3639H17.4205C17.4298 18.3826 17.4345 18.4106 17.4345 18.4479V18.5739H20.7385V18.6439H19.2265V18.8539H20.7805V19.0639ZM29.3364 15.5639H30.0364V15.8439H29.9104V16.1239H29.7844V16.3339H29.4904V16.4039H29.6024V16.4739H29.2104V16.6139H29.8824V16.8239H29.4764V16.8939H29.4904C29.4904 16.9406 29.4858 16.9873 29.4764 17.0339C29.4764 17.0806 29.4764 17.1273 29.4764 17.1739H29.4624C29.4531 17.2019 29.4484 17.2439 29.4484 17.2999V17.4539H29.3784C29.3691 17.4726 29.3644 17.4959 29.3644 17.5239C29.3644 17.5519 29.3644 17.5753 29.3644 17.5939H29.5044L29.4624 17.8739H29.3364C29.3271 17.9206 29.3178 17.9673 29.3084 18.0139C29.3084 18.0606 29.2991 18.1073 29.2804 18.1539H29.4344C29.4344 18.1633 29.4298 18.1726 29.4204 18.1819C29.4204 18.1913 29.4204 18.2053 29.4204 18.2239H29.6304C29.6304 18.2333 29.6258 18.2426 29.6164 18.2519C29.6164 18.2613 29.6164 18.2753 29.6164 18.2939H29.3644C29.3551 18.3313 29.3458 18.3686 29.3364 18.4059C29.3271 18.4339 29.3178 18.4666 29.3084 18.5039H29.2664L29.1824 18.7139H29.0284C29.0191 18.7513 29.0051 18.7886 28.9864 18.8259C28.9678 18.8539 28.9491 18.8866 28.9304 18.9239H29.0564C29.0378 18.9706 29.0144 19.0173 28.9864 19.0639H28.9024C28.8931 19.1013 28.8744 19.1386 28.8464 19.1759C28.8278 19.2039 28.8091 19.2366 28.7904 19.2739H29.2244L29.1264 19.4139H28.6084L28.4544 19.6239H28.6084L28.4124 19.8339H28.5664C28.5571 19.8433 28.5431 19.8526 28.5244 19.8619C28.5151 19.8713 28.5058 19.8853 28.4964 19.9039H28.6644C28.6364 19.9226 28.6084 19.9459 28.5804 19.9739C28.5618 20.0019 28.5384 20.0253 28.5104 20.0439H28.2444C28.2164 20.0626 28.1884 20.0859 28.1604 20.1139C28.1324 20.1419 28.0998 20.1653 28.0624 20.1839H28.1604C28.1324 20.2026 28.0998 20.2259 28.0624 20.2539C28.0344 20.2819 28.0018 20.3053 27.9644 20.3239H27.9364C27.8524 20.3706 27.7684 20.4173 27.6844 20.4639C27.6004 20.5106 27.5118 20.5573 27.4184 20.6039H27.3764C27.3484 20.6133 27.3204 20.6226 27.2924 20.6319C27.2644 20.6413 27.2364 20.6553 27.2084 20.6739C27.1431 20.7019 27.0778 20.7299 27.0124 20.7579C26.9564 20.7766 26.8911 20.7953 26.8164 20.8139H26.8024C26.4944 20.9073 26.1584 20.9773 25.7944 21.0239H25.8084C25.6591 21.0426 25.5004 21.0566 25.3324 21.0659C25.1738 21.0753 25.0151 21.0799 24.8564 21.0799C24.6884 21.0799 24.5251 21.0753 24.3664 21.0659C24.2078 21.0566 24.0491 21.0426 23.8904 21.0239C23.5358 20.9866 23.1951 20.9166 22.8684 20.8139H22.8824C22.8171 20.7953 22.7518 20.7766 22.6864 20.7579C22.6211 20.7299 22.5558 20.7019 22.4904 20.6739H22.4764C22.4484 20.6553 22.4204 20.6413 22.3924 20.6319C22.3644 20.6226 22.3364 20.6133 22.3084 20.6039H22.3504C22.2571 20.5573 22.1684 20.5106 22.0844 20.4639C22.0004 20.4173 21.9164 20.3706 21.8324 20.3239H21.8604L21.6504 20.1839H21.5664C21.5291 20.1653 21.4964 20.1419 21.4684 20.1139C21.4404 20.0859 21.4124 20.0626 21.3844 20.0439H21.6504L21.4824 19.9039H21.3144C21.3051 19.8853 21.2958 19.8713 21.2864 19.8619C21.2771 19.8526 21.2631 19.8433 21.2444 19.8339H21.1044C21.0671 19.7966 21.0298 19.7639 20.9924 19.7359C20.9644 19.6986 20.9364 19.6613 20.9084 19.6239H20.7544L20.5864 19.4139H21.1044L21.0204 19.2739H20.5724C20.5538 19.2366 20.5351 19.2039 20.5164 19.1759C20.4978 19.1386 20.4791 19.1013 20.4604 19.0639H20.5444C20.5164 19.0173 20.4931 18.9706 20.4744 18.9239H20.3484C20.3298 18.8866 20.3111 18.8539 20.2924 18.8259C20.2831 18.7886 20.2691 18.7513 20.2504 18.7139H20.4184L20.3344 18.5039H20.3764C20.3671 18.4666 20.3578 18.4339 20.3484 18.4059C20.3391 18.3686 20.3298 18.3313 20.3204 18.2939H20.4744C20.4651 18.2753 20.4604 18.2519 20.4604 18.2239H20.3204C20.3204 18.2053 20.3158 18.1913 20.3064 18.1819C20.3064 18.1726 20.3064 18.1633 20.3064 18.1539H20.2784C20.2691 18.1073 20.2598 18.0606 20.2504 18.0139C20.2411 17.9673 20.2318 17.9206 20.2224 17.8739H20.2924C20.2831 17.8273 20.2738 17.7806 20.2644 17.7339C20.2644 17.6873 20.2644 17.6406 20.2644 17.5939H20.1804L20.1664 17.4539H20.2644V17.2999C20.2644 17.2813 20.2598 17.2626 20.2504 17.2439C20.2504 17.2159 20.2504 17.1926 20.2504 17.1739H20.0684C20.0591 17.1273 20.0544 17.0806 20.0544 17.0339C20.0544 16.9873 20.0544 16.9406 20.0544 16.8939H20.1524V16.8239H20.1104V16.6139H20.3904V16.4739H19.9004V16.4039H20.1664V16.3339H20.1524V16.1239H20.0824V15.8439H20.1664V15.5639H20.0684V15.3539H19.5504V15.0739H20.1524C20.1618 15.0553 20.1664 15.0319 20.1664 15.0039H20.3904V14.9339H20.2224V14.7939H20.2364L20.2644 14.5139H20.2364C20.2364 14.4766 20.2364 14.4439 20.2364 14.4159C20.2458 14.3786 20.2551 14.3413 20.2644 14.3039H20.2224C20.2224 14.2666 20.2224 14.2339 20.2224 14.2059C20.2318 14.1686 20.2411 14.1313 20.2504 14.0939H20.2224C20.2318 14.0566 20.2411 14.0239 20.2504 13.9959C20.2598 13.9586 20.2691 13.9213 20.2784 13.8839H19.8864C19.8864 13.8653 19.8864 13.8513 19.8864 13.8419C19.8958 13.8326 19.9004 13.8233 19.9004 13.8139H20.3204L20.3624 13.6739H20.3344L20.3624 13.6039H20.5724C20.5818 13.5853 20.5911 13.5619 20.6004 13.5339C20.6098 13.5059 20.6191 13.4826 20.6284 13.4639H20.4884C20.5164 13.3799 20.5538 13.2866 20.6004 13.1839H20.5584C20.5864 13.1373 20.6098 13.0906 20.6284 13.0439C20.6564 12.9879 20.6844 12.9413 20.7124 12.9039H20.7544L20.7964 12.8339H20.5724L20.6144 12.7639H20.8384L20.8804 12.6939H20.8524L21.0204 12.4839H20.9224L21.1044 12.2739C21.1511 12.2273 21.1978 12.1806 21.2444 12.1339C21.3004 12.0779 21.3564 12.0313 21.4124 11.9939H21.2724L21.3564 11.9239H21.2024C21.2211 11.9053 21.2351 11.8913 21.2444 11.8819C21.2631 11.8726 21.2818 11.8633 21.3004 11.8539H21.6504C21.6878 11.8353 21.7251 11.8119 21.7624 11.7839C21.7998 11.7559 21.8371 11.7326 21.8744 11.7139H21.9164C22.0098 11.6673 22.1031 11.6206 22.1964 11.5739C22.2898 11.5179 22.3831 11.4713 22.4764 11.4339H22.5184C22.7051 11.3499 22.9104 11.2799 23.1344 11.2239H23.2044C23.4751 11.1493 23.7598 11.0933 24.0584 11.0559C24.3571 11.0186 24.6651 10.9999 24.9824 10.9999C25.6451 10.9999 26.2331 11.0746 26.7464 11.2239H26.6624C26.7651 11.2519 26.8678 11.2846 26.9704 11.3219C27.0731 11.3499 27.1711 11.3873 27.2644 11.4339H27.2084C27.3111 11.4713 27.4044 11.5179 27.4884 11.5739C27.5818 11.6206 27.6751 11.6673 27.7684 11.7139H27.7124L27.9224 11.8539H27.5724C27.5911 11.8633 27.6051 11.8726 27.6144 11.8819C27.6331 11.8913 27.6518 11.9053 27.6704 11.9239H27.8244C27.8431 11.9333 27.8618 11.9426 27.8804 11.9519C27.8991 11.9613 27.9131 11.9753 27.9224 11.9939H28.0624C28.1184 12.0313 28.1698 12.0779 28.2164 12.1339C28.2724 12.1806 28.3238 12.2273 28.3704 12.2739H28.3844C28.4218 12.3113 28.4544 12.3486 28.4824 12.3859C28.5104 12.4139 28.5384 12.4466 28.5664 12.4839H28.6644L28.8324 12.6939H28.8604C28.8884 12.7219 28.9071 12.7453 28.9164 12.7639H28.6924L28.7344 12.8339H28.9724L29.0144 12.9039H28.9724C29.0004 12.9413 29.0238 12.9879 29.0424 13.0439C29.0704 13.0906 29.0984 13.1373 29.1264 13.1839H29.1684L29.2944 13.4639H29.4344L29.4764 13.6039H29.2664L29.2944 13.6739H29.3224L29.3644 13.8139H29.3224C29.3224 13.8233 29.3224 13.8326 29.3224 13.8419C29.3318 13.8513 29.3364 13.8653 29.3364 13.8839H28.7484C28.7671 13.9213 28.7764 13.9586 28.7764 13.9959C28.7858 14.0239 28.7951 14.0566 28.8044 14.0939H29.5324C29.5418 14.1313 29.5464 14.1686 29.5464 14.2059C29.5558 14.2339 29.5604 14.2666 29.5604 14.3039H29.3644C29.3738 14.3413 29.3784 14.3786 29.3784 14.4159C29.3878 14.4439 29.3924 14.4766 29.3924 14.5139H29.5744L29.6024 14.7939H29.4204V14.8359C29.4204 14.8453 29.4204 14.8593 29.4204 14.8779C29.4298 14.8966 29.4344 14.9153 29.4344 14.9339H29.8124V15.0039H29.4764C29.4858 15.0226 29.4904 15.0459 29.4904 15.0739H29.7424C29.7518 15.1206 29.7564 15.1673 29.7564 15.2139C29.7564 15.2606 29.7564 15.3073 29.7564 15.3539H29.3364V15.5639ZM26.2704 15.8439H26.3964V15.5639H25.6964V15.3539H26.1164C26.1164 15.3073 26.1164 15.2606 26.1164 15.2139C26.1164 15.1673 26.1118 15.1206 26.1024 15.0739H25.8504C25.8504 15.0553 25.8458 15.0413 25.8364 15.0319C25.8364 15.0226 25.8364 15.0133 25.8364 15.0039H26.1724V14.9339H25.7944C25.7944 14.9153 25.7898 14.9013 25.7804 14.8919C25.7804 14.8826 25.7804 14.8733 25.7804 14.8639V14.7939H25.9484C25.9484 14.7473 25.9438 14.7006 25.9344 14.6539C25.9344 14.5979 25.9298 14.5513 25.9204 14.5139H25.7384C25.7291 14.4766 25.7198 14.4439 25.7104 14.4159C25.7011 14.3786 25.6871 14.3413 25.6684 14.3039H25.8644C25.8364 14.2293 25.7991 14.1593 25.7524 14.0939H25.0244C24.9778 14.0193 24.9031 13.9493 24.8004 13.8839H25.3884C25.3324 13.8466 25.2904 13.8233 25.2624 13.8139H25.3044C25.1644 13.7579 25.0104 13.7299 24.8424 13.7299C24.6744 13.7299 24.5204 13.7579 24.3804 13.8139H23.9744C23.9371 13.8233 23.8904 13.8466 23.8344 13.8839H24.2264C24.1518 13.9306 24.0771 14.0006 24.0024 14.0939H24.0304C23.9838 14.1593 23.9464 14.2293 23.9184 14.3039H23.9604C23.9511 14.3413 23.9418 14.3786 23.9324 14.4159C23.9231 14.4439 23.9091 14.4766 23.8904 14.5139H23.9184C23.9091 14.5513 23.8998 14.5979 23.8904 14.6539C23.8904 14.7006 23.8904 14.7473 23.8904 14.7939H23.8624V14.9339H24.0304V15.0039H23.8064V15.0739H23.1904V15.3539H23.7084V15.5639H23.8064V15.8439H23.7224V16.1239H23.7924V16.3339H23.8064C23.8064 16.3619 23.8111 16.3853 23.8204 16.4039H23.5404V16.4739H24.0304V16.6139H23.7504V16.8239H23.7924V16.8939H23.6944C23.6944 16.9406 23.6944 16.9873 23.6944 17.0339C23.7038 17.0806 23.7084 17.1273 23.7084 17.1739H23.9044V17.2159C23.9044 17.2533 23.9044 17.2953 23.9044 17.3419C23.9044 17.3793 23.9091 17.4166 23.9184 17.4539H23.8204C23.8298 17.4726 23.8344 17.4959 23.8344 17.5239C23.8344 17.5519 23.8391 17.5753 23.8484 17.5939H23.9324C23.9418 17.6406 23.9558 17.6873 23.9744 17.7339C23.9931 17.7806 24.0118 17.8273 24.0304 17.8739H23.9604C24.0164 17.9766 24.0911 18.0699 24.1844 18.1539H24.2124C24.2311 18.1633 24.2498 18.1773 24.2684 18.1959C24.2871 18.2053 24.3058 18.2146 24.3244 18.2239H24.4504C24.4784 18.2333 24.5064 18.2473 24.5344 18.2659C24.5624 18.2753 24.5904 18.2846 24.6184 18.2939H24.4504C24.5624 18.3313 24.6931 18.3499 24.8424 18.3499C24.9918 18.3499 25.1224 18.3313 25.2344 18.2939H25.4724C25.5004 18.2846 25.5284 18.2753 25.5564 18.2659C25.5844 18.2473 25.6124 18.2333 25.6404 18.2239H25.4164C25.4351 18.2146 25.4538 18.2053 25.4724 18.1959C25.4911 18.1773 25.5098 18.1633 25.5284 18.1539H25.3744C25.4584 18.0886 25.5331 17.9953 25.5984 17.8739H25.7244C25.7711 17.7713 25.8084 17.6779 25.8364 17.5939H25.6964C25.7058 17.5753 25.7104 17.5519 25.7104 17.5239C25.7104 17.4959 25.7151 17.4726 25.7244 17.4539H25.7944C25.8038 17.4166 25.8084 17.3793 25.8084 17.3419C25.8084 17.2953 25.8084 17.2533 25.8084 17.2159V17.1739H25.8364C25.8364 17.1273 25.8364 17.0806 25.8364 17.0339C25.8364 16.9873 25.8411 16.9406 25.8504 16.8939H25.8364V16.8239H26.2424V16.6139H25.5704V16.4739H25.9624V16.4039H25.8504V16.3339H26.1444V16.1239H26.2704V15.8439ZM39.5614 15.1439L39.5194 15.3539H41.8294L41.8014 15.4939H39.6734L39.6594 15.5639H40.5414L40.4994 15.8439H40.7934L40.7654 16.0539H40.9334L40.8914 16.2639H40.9054L40.8774 16.4739H40.9334V16.5439H40.9054L40.8634 16.8239H40.8214L40.7794 17.1039L40.7514 17.3839H41.0174L41.0034 17.4539H40.8494V17.5239H41.1294V17.5939H40.6814L40.6674 17.6639H40.5134L40.4854 17.8739H40.9474L40.9054 18.1539H41.4374L41.4094 18.3639H40.9894L40.9754 18.4339H40.7654L40.7234 18.7139H40.8354L40.8214 18.8539H40.9474L40.9194 19.0639H40.7094L40.6814 19.2739H40.2194L40.2054 19.4139H40.6814L40.6394 19.6939H40.3314L40.3034 19.9739H40.5834L40.5554 20.1839H39.4774L39.4494 20.3239H39.8554L39.8414 20.4079V20.4639H40.2194C40.21 20.4826 40.2007 20.5059 40.1914 20.5339C40.1914 20.5619 40.182 20.5853 40.1634 20.6039H40.0094C39.9627 20.6879 39.902 20.7579 39.8274 20.8139H39.9534C39.8974 20.8513 39.8554 20.8746 39.8274 20.8839H39.9394C39.8647 20.9213 39.7714 20.9399 39.6594 20.9399H37.6574C37.6014 20.9399 37.55 20.9353 37.5034 20.9259C37.466 20.9073 37.4287 20.8933 37.3914 20.8839H37.2794C37.2514 20.8746 37.228 20.8653 37.2094 20.8559C37.1907 20.8373 37.172 20.8233 37.1534 20.8139H37.0414C37.004 20.7766 36.9714 20.7393 36.9434 20.7019C36.9154 20.6646 36.892 20.6319 36.8734 20.6039H37.0274C37.018 20.5946 37.0134 20.5806 37.0134 20.5619L36.9714 20.4639H36.5934L36.5374 20.3239H36.1314L36.0754 20.1839H37.1534L37.0694 19.9739H36.7754L36.6634 19.6939H36.9714L36.8594 19.4139H36.3834L36.3274 19.2739H36.7754L36.6914 19.0639H36.9014L36.8174 18.8539H36.6914L36.6354 18.7139H36.5234L36.4114 18.4339H36.6214L36.5934 18.3639H37.0134L36.9294 18.1539H36.3974L36.2854 17.8739H35.8234L35.7534 17.6919L35.6834 17.8739H35.6274L35.5154 18.1539H36.3834L36.2994 18.3639H35.6134L35.5854 18.4339H35.7114L35.5994 18.7139H35.8514L35.7954 18.8539H35.0954L35.0114 19.0639H35.3894L35.3054 19.2739H34.8434L34.7874 19.4139H35.0114L34.8994 19.6939H34.9134L34.8014 19.9739H33.8774L33.7934 20.1839H35.2634L35.2074 20.3239H34.8994L34.8434 20.4639H34.8154L34.7734 20.5619L34.7454 20.6039H34.3114C34.2927 20.6319 34.2694 20.6646 34.2414 20.7019C34.2227 20.7393 34.19 20.7766 34.1434 20.8139H34.2274C34.1994 20.8419 34.162 20.8653 34.1154 20.8839H34.4934C34.456 20.8933 34.414 20.9073 34.3674 20.9259C34.3207 20.9353 34.2694 20.9399 34.2134 20.9399H32.2114C32.0994 20.9399 32.006 20.9213 31.9314 20.8839H31.5674C31.5394 20.8746 31.4974 20.8513 31.4414 20.8139H31.3434C31.2594 20.7486 31.1987 20.6786 31.1614 20.6039H31.6094C31.6 20.5853 31.5907 20.5619 31.5814 20.5339C31.572 20.5059 31.5627 20.4826 31.5534 20.4639H31.5954L31.5814 20.4079L31.5674 20.3239H31.8754L31.8474 20.1839H30.3914L30.3634 19.9739H31.2734L31.2454 19.6939H31.2314L31.1894 19.4139H30.9654L30.9514 19.2739H31.3994L31.3714 19.0639H31.0074L30.9794 18.8539H31.6794L31.6514 18.7139H31.3994L31.3574 18.4339H31.2314L31.2174 18.3639H31.9034L31.8754 18.1539H31.0074L30.9654 17.8739H31.0214L30.9794 17.6639H31.1334V17.5939H31.5814L31.5674 17.5239H31.2734L31.2594 17.4539H31.4134V17.3839H31.1334L31.1194 17.2439H31.1054L31.0914 17.1039L31.0494 16.8239H31.0914L31.0494 16.5439H31.0774L31.0634 16.4739H31.0074L30.9794 16.2639H30.9654L30.9374 16.0539H30.7694L30.7414 15.8439H30.4474L30.4054 15.5639H29.5234V15.4939H31.6514L31.6374 15.3539H30.7974L30.7694 15.1439H29.8874L29.8734 15.0039H31.1474L31.1054 14.7239H30.7694V14.6539H30.9654L30.9514 14.5839H31.2454L31.2174 14.3739H30.7414L30.7274 14.3039H29.6354L29.6074 14.0239H30.8254L30.7834 13.7439H30.4754L30.4614 13.6039H30.5874L30.5594 13.3939H30.6014L30.5874 13.3239H30.1534L30.1394 13.1839H30.4334L30.4054 12.9739H30.4334L30.4054 12.7639H30.6434L30.6154 12.6239H29.8594L29.8454 12.4839H30.4474L30.4334 12.3439H30.0834L30.0694 12.2039H30.5034L30.4754 11.9939H30.3354L30.2934 11.7139H30.4474L30.4334 11.6439L30.4054 11.4899V11.4339H30.1954C30.214 11.2379 30.3167 11.1399 30.5034 11.1399H33.1074C33.3967 11.1399 33.56 11.2379 33.5974 11.4339H33.8074C33.8167 11.4526 33.8214 11.4806 33.8214 11.5179L33.8354 11.6439L33.8494 11.7139H33.7094L33.7374 11.9939H33.8774L33.9054 12.2039H33.4574L33.4854 12.3439H33.8214L33.8354 12.4839H33.2334L33.2474 12.6239H34.0034L34.0314 12.7639H33.7934L33.8074 12.9739H33.7934L33.8074 13.1839H33.4994L33.5274 13.3239H33.9474L33.9614 13.3939H33.9194L33.9474 13.6039H33.8214L33.8354 13.7439H34.1434L34.1854 14.0239H32.9534L32.9814 14.3039H34.0734L34.0874 14.3739H34.5634L34.5914 14.5839H34.2974V14.6539H34.1014L34.1154 14.7239H34.4094L34.4374 14.6539H34.5774L34.6054 14.5839H35.1934L35.2634 14.3739H34.6194L34.6334 14.3039H35.7114L35.8094 14.0239H34.6754L34.7594 13.7439H34.6334V13.7159L34.6754 13.6039H34.9414C34.96 13.5666 34.9787 13.5293 34.9974 13.4919C35.0254 13.4546 35.058 13.4219 35.0954 13.3939H35.0114C35.058 13.3566 35.1094 13.3333 35.1654 13.3239H35.2914C35.3194 13.3146 35.3614 13.3099 35.4174 13.3099H36.8454C36.9014 13.3099 36.9387 13.3146 36.9574 13.3239H36.8314C36.8687 13.3333 36.8967 13.3426 36.9154 13.3519C36.9434 13.3613 36.9667 13.3753 36.9854 13.3939H37.0694C37.116 13.4219 37.1487 13.4546 37.1674 13.4919C37.1954 13.5293 37.214 13.5666 37.2234 13.6039H36.9714C36.9994 13.6413 37.0134 13.6786 37.0134 13.7159L37.0274 13.7439H37.1674L37.2514 14.0239H37.7974L37.8394 13.7439H37.7554L37.7694 13.6039H38.4274L38.4414 13.3939H37.8254L37.8394 13.3239H37.7274L37.7554 13.1839H37.9934L38.0214 12.9739H37.9374L37.9654 12.7639H38.1614L38.1754 12.6239H37.3214L37.3354 12.4839H37.5874L37.6014 12.3439H38.0774L38.0914 12.2039H38.0774L38.1054 11.9939L38.1334 11.7139H37.8534L37.8674 11.6439H38.2034L38.2314 11.5179V11.4339H38.4974C38.5347 11.2379 38.698 11.1399 38.9874 11.1399H41.5914C41.666 11.1399 41.7314 11.1679 41.7874 11.2239C41.8527 11.2799 41.89 11.3499 41.8994 11.4339H41.6474V11.4899L41.6194 11.6439H41.2694L41.2554 11.7139H41.5494L41.5074 11.9939L41.4794 12.2039H41.4934L41.4654 12.3439H40.9894L40.9754 12.4839H40.7234L40.6954 12.6239H41.5634L41.5494 12.7639H41.3534L41.3254 12.9739H41.3954L41.3674 13.1839H41.1294L41.1014 13.3239H41.2134L41.1994 13.3939H41.8154L41.7874 13.6039H41.1434L41.1154 13.7439H41.1994L41.1574 14.0239H40.6534L40.6114 14.3039H41.2274L41.2134 14.3739H40.4994L40.4714 14.5839H41.1294V14.6539H41.0874L41.0734 14.7239H41.1154L41.0734 15.0039H41.2974L41.2694 15.1439H39.5614ZM37.8814 14.3039H37.4054L37.4194 14.3739H37.8674L37.8814 14.3039ZM37.5454 14.5839L37.5734 14.6539H37.4334L37.4614 14.7239L37.5594 15.0039H36.0474L36.0894 15.1439H37.9514L37.9654 15.0039H37.7414L37.7834 14.7239H37.7414L37.7554 14.6539H37.7834L37.7974 14.5839H37.5454ZM34.9974 15.3539H34.9554L34.9694 15.4659L34.9974 15.3539ZM38.4974 15.4519L38.5114 15.3539H38.4554L38.4974 15.4519Z" fill="black"/>
</svg>
